# xmcd CD database file
# Generated: Fri Jun 4 14:13:08 2004 by KSCD
# 
# Track frame offsets:
#       150
#       20195
#       44089
#       58127
#       76878
#       91544
#       109546
#       127132
#       147936
#       165680
#       186745
#       202370
#
# Disc length: 3003 seconds
#
# Revision: 1
# Processed by: cddbd v1.5PL3 Copyright (c) Steve Scherf et al.
# Submitted via: Kscd 1.3.3
#
DISCID=b70bb90c
DTITLE=Mikha's Room - New Krokodillos Muy Internacionales
DYEAR=1900
DGENRE=
TTITLE0=Me Myself And I3Q
TTITLE1=After You've GoneQ
TTITLE2=Sidewalk BluesQ
TTITLE3=Who Walked In2Q
TTITLE4=Lazy RiverQ
TTITLE5=Gundagai2Q
TTITLE6=Willie The WeeperQ
TTITLE7=Mikha's RoomQ
TTITLE8=Muy Neurological RagQ
TTITLE9=Someday You'll Be SorryQ
TTITLE10=BarcelonaQ
TTITLE11=All Of MeQ1
EXTD=
EXTT0=
EXTT1=
EXTT2=
EXTT3=
EXTT4=
EXTT5=
EXTT6=
EXTT7=
EXTT8=
EXTT9=
EXTT10=
EXTT11=
PLAYORDER=
